<?xml version="1.0" encoding="UTF-8"?> <svg xmlns="http://www.w3.org/2000/svg" width="927" viewBox="0 0 695.25 187.5" height="250" version="1.0"><path d="M49.136 14.844H7.256v11.508h41.88c14.226 0 23.175 10.55 23.175 23.18 0 12.468-9.109 23.175-23.175 23.175H7.256v54.028h11.669v-42.52h30.21c20.297 0 35.165-15.824 35.165-34.683 0-19.024-14.227-34.688-35.164-34.688ZM148.393 14.844h-10.55l-42.356 111.89h12.785l34.847-93.507 34.684 93.508h12.79ZM207.05 126.735h11.508V96.684H207.05Zm73.207-111.89v30.05h11.512v-30.05Zm-61.699 50.19v-50.19H207.05v61.698h73.207v50.192h11.512v-61.7ZM408.929 26.512V14.844h-75.766v11.668h52.746v88.715h-56.262c8.95-15.824 12.786-40.602 14.223-66.496h-11.508c-1.437 24.617-5.433 52.27-15.984 66.496H305.67v31.809h11.668v-20.301h80.078v20.3h11.512v-31.808h-11.352V26.512ZM498.274 14.844h-73.368v11.508h73.368Zm-4.953 50.192h-68.415v11.507h68.415Zm-68.415 50.03v11.669h74.329v-11.668ZM576.593 66.153c7.512-4.953 11.828-12.946 11.828-22.055 0-16.145-9.43-29.254-31.808-29.254h-39v11.668l38.203-.16c15.824 0 20.137 7.992 20.137 17.746 0 9.75-5.434 17.742-21.258 17.742h-37.082v64.895h41.719c24.453 0 35.484-15.024 35.484-32.926 0-12.309-6.715-22.379-18.223-27.656Zm-17.582 49.074-29.73-.16v-42.68h29.09c16.625 0 23.976 9.91 23.976 21.422 0 11.508-7.511 21.418-23.336 21.418ZM676.81 14.844l-28.13 65.059-33.73-65.059h-12.945l40.758 78.805-14.383 33.086h12.465l48.594-111.89Zm0 0" fill="#fc4545"></path><path d="m44.775 139.354-18.102 23.125-18.101-23.125h-.434v38.148h3.945v-27.558l14.375 18.426h.43l14.43-18.426v27.558h3.945v-38.148ZM76.813 139.678h-24.8v3.89h24.8Zm-1.672 16.965H52.012v3.89h23.13Zm-23.129 16.914v3.945h25.125v-3.945ZM108.206 167.885l-24.367-28.531h-.489v38.148h3.89v-28.367l24.372 28.746h.484v-38.203h-3.89ZM118.74 148.432h2.27l.972-9.078h-4.214ZM125.766 169.612c.972 2.648 3.457 5.297 7.078 6.863l1.785-3.457c-2.379-.973-4.27-2.594-5.137-4.703Zm15.129-13.13c-7.188-1.187-10.266-2.702-10.266-6.483 0-4.485 3.676-6.81 9.617-6.81h.324l2.54-3.62c-.919-.16-1.891-.27-2.864-.27-9.348 0-13.508 5.133-13.508 10.7.055 6.917 6.051 9.023 13.453 10.375 7.407 1.351 10.594 2.484 10.594 6.539 0 5.347-5.945 7.132-9.945 7.132h-.215l-1.945 3.782c.812.054 1.406.109 2.27.109 6.972 0 13.78-3.73 13.78-11.023 0-7.403-6.918-9.243-13.835-10.43ZM192.55 174.045c-8.539 0-14.644-6.918-14.644-15.457 0-8.48 6.105-15.398 14.645-15.398 5.187 0 9.562 2.539 12.156 6.484l3.46-1.73c-3.241-5.188-8.917-8.59-15.616-8.59-10.645 0-18.645 8.59-18.645 19.234 0 10.649 8 19.293 18.645 19.293 6.699 0 12.375-3.406 15.617-8.644l-3.461-1.676c-2.594 3.945-6.969 6.484-12.156 6.484Zm-3.132-15.347c0 1.62 1.347 2.972 2.968 2.972a2.964 2.964 0 0 0 2.973-2.972c0-1.676-1.297-2.973-2.973-2.973a2.96 2.96 0 0 0-2.968 2.973ZM216.918 150.432h-3.891v22.531l3.89-3.836Zm0-10.754h-3.891v5.727h3.89Zm3.242 33.934-3.946 3.89h19.508v-3.89ZM243.933 139.678h-3.89v5.727h3.89v-5.727Zm10.375 34.367c-5.62 0-10.375-3.836-10.375-11.402v-12.21h-3.89v12.046c0 10.809 6.484 15.457 14.265 15.457 7.188 0 12.914-4.16 13.727-13.293l-3.785-1.676c-.16 7.242-4.43 11.078-9.942 11.078Zm9.942-34.367v17.399l3.89 1.675v-19.074ZM294.834 157.022c2.54-1.676 3.996-4.375 3.996-7.457 0-5.457-3.187-9.887-10.754-9.887h-13.183v3.946l12.914-.055c5.351 0 6.808 2.699 6.808 5.996 0 3.297-1.836 6-7.187 6h-12.535v21.937h14.105c8.266 0 11.996-5.078 11.996-11.132 0-4.16-2.27-7.563-6.16-9.348Zm-5.945 16.59-10.051-.055v-14.426h9.836c5.617 0 8.105 3.348 8.105 7.239 0 3.89-2.543 7.242-7.89 7.242Zm0 0" fill="#fff"></path></svg> 